<?xml version="1.0" encoding="UTF-8"?><svg id="Layer_2" xmlns="http://www.w3.org/2000/svg" xmlns:xlink="http://www.w3.org/1999/xlink" viewBox="0 0 425.46 103.66"><defs><style>.cls-1{clip-path:url(#clippath);}.cls-2{fill:none;}.cls-2,.cls-3{stroke-width:0px;}</style><clipPath id="clippath"><rect class="cls-2" width="425.46" height="103.66"/></clipPath></defs><g id="Layer_1-2"><g class="cls-1"><path class="cls-3" d="m28.77.32h110.94v11.51H28.77c-4.82,0-8.9,1.67-12.24,5.02-3.35,3.34-5.02,7.4-5.02,12.17s1.67,8.83,5.02,12.17c3.34,3.35,7.42,5.02,12.24,5.02h82.32c7.87,0,14.6,2.8,20.21,8.41,5.6,5.61,8.41,12.34,8.41,20.21,0,5.21-1.28,10.03-3.83,14.46-2.56,4.42-6.05,7.92-10.47,10.47-4.42,2.56-9.2,3.83-14.31,3.83H0v-11.51h111.08c4.72,0,8.75-1.67,12.1-5.01,3.34-3.34,5.02-7.4,5.02-12.17s-1.67-8.82-5.02-12.17c-3.35-3.34-7.38-5.01-12.1-5.01H28.77c-7.97,0-14.75-2.8-20.36-8.41C2.8,43.7,0,36.93,0,29.02S2.8,14.34,8.41,8.73C14.02,3.13,20.8.32,28.77.32"/><path class="cls-3" d="m251.82.32h22.87v35.27h-11.51V11.83h-11.36c-5.41,0-10.13,1.82-14.16,5.46l-86.3,86.3h-16.38L229.84,8.73c6.2-5.61,13.52-8.41,21.98-8.41"/><path class="cls-3" d="m247.97,19.88c3.28-.88,6.64,1.07,7.52,4.34.88,3.28-1.07,6.64-4.34,7.52-3.28.88-6.65-1.07-7.52-4.34-.88-3.28,1.07-6.64,4.34-7.52"/><path class="cls-3" d="m166.94,33.66c-2.91-.34-5.56-2.68-5.81-5.81-.12-1.46-.75-5.93-1.24-9.26-.09-.63-1.01-.63-1.09,0-.44,3.33-1.05,7.8-1.31,9.25-.65,3.57-2.77,5.38-5.81,5.81-1.45.2-5.91.82-9.24,1.28-.63.09-.63,1,0,1.09,3.33.47,7.78,1.09,9.24,1.28,3.86.51,5.42,2.98,5.8,5.8.2,1.47.83,5.99,1.3,9.33.09.63,1,.63,1.09,0,.48-3.33,1.12-7.86,1.27-9.33.33-3.26,2.71-5.46,5.8-5.81,1.47-.16,6-.8,9.33-1.28.63-.09.63-1,0-1.09-3.34-.48-7.86-1.11-9.33-1.28"/><path class="cls-3" d="m192.46,8.91c-1.67-.19-3.19-1.53-3.33-3.33-.07-.84-.43-3.4-.71-5.31-.05-.36-.58-.36-.63,0-.25,1.91-.6,4.48-.75,5.31-.37,2.05-1.59,3.09-3.33,3.33-.83.11-3.39.47-5.3.74-.36.05-.36.58,0,.63,1.91.27,4.46.62,5.3.73,2.21.29,3.11,1.71,3.33,3.33.11.84.48,3.44.74,5.35.05.36.57.37.63,0,.28-1.91.65-4.51.73-5.36.19-1.87,1.56-3.13,3.33-3.33.84-.09,3.44-.46,5.35-.73.36-.05.36-.58,0-.63-1.91-.27-4.51-.64-5.35-.73"/><path class="cls-3" d="m251.82,91.4c-8.01,2.98-15.93,5.44-23.37,7.27,7.8,5.11,17.81,6.57,27.2,3.06,9.4-3.5,16.02-11.17,18.54-20.13-6.82,3.48-14.4,6.82-22.38,9.8m61.38-48.91c-3.39-6.1-22.36-3.23-47.24,5.49-.35-.37-.72-.71-1.09-1.03-8.1-7.3-19.9-9.93-30.82-5.86-10.92,4.09-18.11,13.8-19.44,24.63-.06.5-.12,1.01-.16,1.51-25.32,10.64-39.34,22.9-37.13,28.81,3.13,8.38,42.22,1.96,73.61-9.77,31.4-11.73,66.62-35.97,62.28-43.78m-109.86,40.24c-1.22-3.26,3.13-7.43,11.02-12.65,0,.49.01.16.03.65.13,3.1.75,6.23,1.9,9.3.6,1.63,1.35,3.19,2.2,4.64.22.4.46.78.71,1.17-8.68.97-14.7.02-15.86-3.12m71.26-17.59c-.07-.44-.15-.9-.24-1.34-.31-1.66-.76-3.32-1.38-4.95-1.15-3.07-2.73-5.83-4.67-8.26-.31-.38-.45-.6-.79-.97,9.39-1.24,15.81-.49,17.03,2.79,1.16,3.12-2.75,7.79-9.95,12.73"/><path class="cls-3" d="m308.99,80.36c-4.4-4.4-7.56-9.32-9.49-14.77-3.12,2.34-6.34,4.54-9.76,6.42.85,1.99,1.83,3.94,2.95,5.84,4.62,7.92,10.89,14.19,18.81,18.81,7.91,4.62,16.54,6.93,25.89,6.93h88.07v-11.51h-88.07c-11.11,0-20.58-3.91-28.4-11.73"/><path class="cls-3" d="m337.39.32c-9.35,0-17.98,2.31-25.89,6.93-7.92,4.62-14.19,10.89-18.81,18.81-2.01,3.45-3.6,7.03-4.74,10.75,4.2-1.17,8.56-1.66,12.92-1.81,1.93-4.14,4.64-7.96,8.13-11.45,7.82-7.82,17.28-11.73,28.4-11.73h88.07V.32h-88.07Z"/></g></g></svg>