<?xml version="1.0" encoding="UTF-8"?><svg id="Layer_2" xmlns="http://www.w3.org/2000/svg" viewBox="0 0 321.56 78.34"><defs><style>.cls-1{fill:#fff;stroke-width:0px;}</style></defs><g id="Layer_2-2"><g id="Layer_1-2"><path class="cls-1" d="m21.74.24h83.85v8.7H21.74c-3.64,0-6.73,1.26-9.25,3.79-2.53,2.53-3.79,5.59-3.79,9.2s1.26,6.67,3.79,9.2c2.53,2.53,5.61,3.79,9.25,3.79h62.22c5.95,0,11.04,2.12,15.28,6.36s6.36,9.33,6.36,15.27c0,3.94-.97,7.58-2.9,10.93-1.93,3.34-4.57,5.98-7.92,7.92-3.34,1.93-6.95,2.9-10.82,2.9H0v-8.7h83.96c3.57,0,6.62-1.26,9.14-3.79,2.53-2.53,3.79-5.59,3.79-9.2s-1.26-6.67-3.79-9.2-5.57-3.79-9.14-3.79H21.74c-6.02,0-11.15-2.12-15.39-6.35C2.12,33.03,0,27.91,0,21.93S2.12,10.84,6.35,6.6C10.59,2.36,15.72.24,21.74.24"/><path class="cls-1" d="m190.33.24h17.28v26.66h-8.7V8.94h-8.59c-4.09,0-7.66,1.38-10.7,4.12l-65.23,65.23h-12.38L173.71,6.6c4.68-4.24,10.22-6.36,16.61-6.36"/><path class="cls-1" d="m187.42,15.03c2.48-.66,5.02.81,5.68,3.28.66,2.48-.81,5.02-3.28,5.69-2.48.66-5.02-.81-5.69-3.28-.66-2.47.81-5.02,3.28-5.69"/><path class="cls-1" d="m126.17,25.44c-2.2-.26-4.2-2.02-4.39-4.39-.09-1.11-.57-4.48-.94-7-.07-.48-.76-.48-.83,0-.33,2.52-.79,5.9-.99,6.99-.49,2.7-2.09,4.07-4.39,4.39-1.1.15-4.47.62-6.98.97-.48.07-.48.76,0,.83,2.51.35,5.88.82,6.98.97,2.92.39,4.1,2.25,4.38,4.39.15,1.11.63,4.53.98,7.05.07.48.76.48.83,0,.36-2.52.85-5.94.96-7.05.25-2.46,2.05-4.13,4.39-4.39,1.11-.12,4.53-.6,7.05-.96.48-.07.48-.76,0-.83-2.52-.36-5.94-.84-7.05-.97"/><path class="cls-1" d="m145.46,6.74c-1.26-.15-2.41-1.16-2.52-2.52-.05-.64-.33-2.57-.54-4.01-.04-.28-.44-.27-.47,0-.19,1.44-.46,3.38-.57,4.01-.28,1.55-1.2,2.33-2.52,2.52-.63.09-2.56.36-4,.56-.28.04-.28.43,0,.47,1.44.2,3.38.47,4.01.56,1.68.22,2.35,1.29,2.51,2.52.09.64.36,2.6.56,4.05.04.27.43.27.47,0,.21-1.45.49-3.41.55-4.05.14-1.41,1.18-2.37,2.52-2.52.64-.07,2.6-.35,4.05-.55.27-.04.27-.44,0-.47-1.45-.21-3.41-.48-4.05-.56"/><path class="cls-1" d="m190.33,69.08c-6.05,2.25-12.04,4.11-17.66,5.5,5.9,3.86,13.46,4.97,20.56,2.31,7.11-2.64,12.11-8.44,14.02-15.22-5.15,2.63-10.89,5.15-16.92,7.41m46.39-36.97c-2.56-4.61-16.9-2.44-35.71,4.15-.27-.28-.54-.53-.82-.78-6.12-5.52-15.04-7.51-23.29-4.43-8.25,3.09-13.68,10.43-14.69,18.62-.04.38-.09.77-.12,1.14-19.14,8.04-29.73,17.31-28.07,21.78,2.37,6.33,31.91,1.48,55.63-7.38,23.74-8.86,50.35-27.18,47.07-33.09m-83.03,30.41c-.92-2.47,2.37-5.62,8.33-9.56,0,.37,0,.12.02.49.1,2.34.57,4.71,1.43,7.03.46,1.23,1.02,2.41,1.67,3.51.16.3.34.59.53.89-6.56.73-11.11.01-11.98-2.35m53.86-13.3c-.06-.33-.11-.68-.18-1.01-.23-1.25-.58-2.51-1.04-3.74-.87-2.32-2.07-4.41-3.53-6.24-.23-.29-.34-.45-.6-.73,7.1-.93,11.95-.37,12.87,2.11.88,2.35-2.08,5.89-7.52,9.62"/><path class="cls-1" d="m233.53,60.73c-3.33-3.33-5.72-7.05-7.17-11.16-2.36,1.77-4.79,3.43-7.38,4.85.64,1.5,1.39,2.98,2.23,4.42,3.49,5.98,8.23,10.72,14.22,14.22,5.98,3.49,12.51,5.24,19.57,5.24h66.56v-8.7h-66.56c-8.4,0-15.55-2.95-21.46-8.86"/><path class="cls-1" d="m255,.24c-7.06,0-13.59,1.75-19.57,5.24-5.98,3.49-10.72,8.23-14.22,14.22-1.52,2.61-2.72,5.31-3.58,8.12,3.18-.88,6.47-1.26,9.76-1.37,1.46-3.13,3.51-6.02,6.14-8.65,5.91-5.91,13.06-8.86,21.46-8.86h66.56V.24h-66.56.01Z"/></g></g></svg>