<?xml version="1.0" encoding="UTF-8"?><svg id="Layer_2" xmlns="http://www.w3.org/2000/svg" viewBox="0 0 321.66 109.52"><defs><style>.cls-1{fill:#fff;stroke-width:0px;}</style></defs><g id="Layer_2-2"><g id="Layer_1-2"><path class="cls-1" d="m21.74.24h83.85v8.7H21.74c-3.64,0-6.73,1.26-9.25,3.79-2.53,2.53-3.79,5.59-3.79,9.2s1.26,6.67,3.79,9.2c2.53,2.53,5.61,3.79,9.25,3.79h62.22c5.95,0,11.04,2.12,15.28,6.36s6.36,9.33,6.36,15.27c0,3.94-.97,7.58-2.9,10.93-1.93,3.34-4.57,5.98-7.92,7.92-3.34,1.93-6.95,2.9-10.82,2.9H0v-8.7h83.96c3.57,0,6.62-1.26,9.14-3.79,2.53-2.53,3.79-5.59,3.79-9.2s-1.26-6.67-3.79-9.2-5.57-3.79-9.14-3.79H21.74c-6.02,0-11.15-2.12-15.39-6.35C2.11,33.03,0,27.91,0,21.93S2.11,10.84,6.35,6.6,15.72.24,21.74.24"/><path class="cls-1" d="m190.32.24h17.28v26.66h-8.7V8.94h-8.59c-4.09,0-7.66,1.38-10.7,4.12l-65.23,65.23h-12.38L173.71,6.6c4.68-4.24,10.22-6.36,16.61-6.36"/><path class="cls-1" d="m187.41,15.03c2.48-.66,5.02.81,5.68,3.28.66,2.47-.81,5.02-3.28,5.68-2.48.66-5.02-.81-5.69-3.28-.66-2.47.81-5.02,3.28-5.69"/><path class="cls-1" d="m126.17,25.44c-2.2-.26-4.2-2.02-4.39-4.39-.09-1.11-.57-4.48-.94-7-.07-.48-.76-.48-.83,0-.33,2.52-.79,5.9-.99,6.99-.49,2.7-2.09,4.07-4.39,4.39-1.1.15-4.47.62-6.98.97-.48.07-.48.76,0,.83,2.51.35,5.88.82,6.98.97,2.92.39,4.1,2.25,4.38,4.39.15,1.11.63,4.53.98,7.05.07.48.76.48.83,0,.36-2.52.85-5.94.96-7.05.25-2.46,2.05-4.13,4.39-4.39,1.11-.12,4.53-.6,7.05-.96.48-.07.48-.76,0-.83-2.52-.36-5.94-.84-7.05-.97"/><path class="cls-1" d="m145.46,6.74c-1.26-.15-2.41-1.16-2.52-2.52-.05-.64-.33-2.57-.54-4.01-.04-.28-.44-.27-.47,0-.19,1.44-.46,3.38-.57,4.01-.28,1.55-1.2,2.33-2.52,2.52-.63.09-2.56.36-4,.56-.28.04-.28.43,0,.47,1.44.2,3.38.47,4.01.56,1.68.22,2.35,1.29,2.51,2.52.09.64.36,2.6.56,4.05.04.27.43.28.47,0,.21-1.45.49-3.41.55-4.05.14-1.41,1.18-2.37,2.52-2.52.64-.07,2.6-.35,4.05-.55.27-.04.27-.44,0-.47-1.45-.21-3.41-.48-4.05-.56"/><path class="cls-1" d="m190.32,69.08c-6.05,2.25-12.04,4.11-17.66,5.5,5.9,3.87,13.46,4.97,20.56,2.31,7.11-2.64,12.11-8.44,14.02-15.22-5.15,2.63-10.89,5.15-16.92,7.41m46.39-36.97c-2.56-4.61-16.9-2.44-35.71,4.15-.27-.28-.54-.53-.82-.78-6.12-5.52-15.04-7.51-23.29-4.43-8.25,3.09-13.68,10.43-14.69,18.62-.04.38-.09.77-.12,1.14-19.14,8.04-29.73,17.31-28.07,21.78,2.37,6.33,31.91,1.48,55.63-7.38,23.74-8.86,50.35-27.18,47.07-33.09m-83.03,30.41c-.92-2.47,2.37-5.62,8.33-9.56,0,.37,0,.12.02.49.1,2.35.57,4.71,1.43,7.03.46,1.23,1.02,2.41,1.67,3.51.16.3.34.59.53.89-6.56.73-11.11.01-11.98-2.35m53.86-13.3c-.06-.33-.11-.68-.18-1.01-.23-1.26-.58-2.51-1.04-3.74-.87-2.32-2.07-4.41-3.53-6.24-.23-.29-.34-.45-.6-.73,7.1-.93,11.95-.37,12.87,2.11.88,2.35-2.08,5.89-7.52,9.62"/><path class="cls-1" d="m5.11,109.49c-1.22,0-2.27-.29-3.14-.86-.87-.57-1.48-1.36-1.83-2.36l1.5-.86c.51,1.59,1.68,2.38,3.5,2.38.9,0,1.59-.18,2.06-.55.47-.37.71-.86.71-1.47s-.24-1.09-.71-1.4c-.47-.31-1.27-.64-2.38-.99-.54-.19-.96-.33-1.25-.43s-.65-.26-1.08-.48c-.43-.22-.75-.44-.96-.67-.21-.23-.4-.53-.57-.91-.17-.38-.25-.8-.25-1.27,0-1.14.4-2.04,1.2-2.71.8-.67,1.77-1,2.92-1,1.04,0,1.94.26,2.71.79.77.52,1.34,1.22,1.73,2.08l-1.46.84c-.56-1.35-1.55-2.02-2.98-2.02-.71,0-1.29.17-1.72.52-.44.35-.66.82-.66,1.42s.21,1.01.62,1.31c.41.3,1.12.61,2.14.94.35.13.61.22.76.27.15.05.39.14.71.25s.55.21.7.28c.15.08.35.18.61.32s.45.27.57.39.27.28.44.46.29.37.36.55.14.4.2.65.08.5.08.78c0,1.15-.42,2.06-1.25,2.74-.84.68-1.93,1.02-3.28,1.02h0Z"/><path class="cls-1" d="m20.12,108.07c-.96.95-2.13,1.42-3.5,1.42s-2.54-.47-3.49-1.42c-.96-.95-1.43-2.12-1.43-3.5s.48-2.55,1.43-3.5c.96-.95,2.12-1.42,3.49-1.42s2.54.47,3.5,1.42c.96.95,1.44,2.12,1.44,3.5s-.48,2.55-1.44,3.5Zm-3.5-.17c.94,0,1.72-.32,2.36-.96.64-.64.95-1.43.95-2.38s-.32-1.74-.95-2.38c-.64-.64-1.42-.96-2.36-.96s-1.7.32-2.34.96-.96,1.43-.96,2.38.32,1.74.96,2.38,1.42.96,2.34.96Z"/><path class="cls-1" d="m28.36,109.49c-1.41,0-2.58-.47-3.52-1.41s-1.4-2.11-1.4-3.51.47-2.57,1.4-3.51c.94-.94,2.11-1.41,3.52-1.41.92,0,1.75.22,2.49.67.74.44,1.29,1.04,1.65,1.79l-1.37.79c-.24-.5-.6-.9-1.1-1.2-.49-.3-1.05-.45-1.68-.45-.94,0-1.72.32-2.35.96s-.95,1.43-.95,2.38.31,1.72.95,2.36,1.41.96,2.35.96c.62,0,1.19-.15,1.69-.44s.88-.69,1.14-1.19l1.39.81c-.4.74-.97,1.33-1.72,1.77-.75.44-1.58.66-2.49.66v-.03Z"/><path class="cls-1" d="m35.48,98.19c-.31,0-.57-.11-.79-.32-.21-.21-.32-.47-.32-.77s.11-.56.32-.78.47-.33.79-.33.56.11.77.33.32.48.32.78-.11.56-.32.77-.47.32-.77.32Zm-.82,11.07v-9.36h1.63v9.36h-1.63Z"/><path class="cls-1" d="m40.39,105.32c.16.84.55,1.49,1.15,1.95.61.46,1.35.69,2.24.69,1.24,0,2.13-.46,2.7-1.37l1.39.79c-.91,1.41-2.28,2.12-4.12,2.12-1.49,0-2.69-.46-3.62-1.39s-1.4-2.11-1.4-3.53.46-2.58,1.37-3.52c.91-.94,2.09-1.4,3.54-1.4,1.37,0,2.49.48,3.36,1.45.87.97,1.3,2.13,1.3,3.49,0,.24-.02.48-.06.73h-7.85Zm3.24-4.14c-.87,0-1.6.25-2.17.74s-.93,1.15-1.07,1.98h6.25c-.14-.89-.49-1.56-1.05-2.02-.56-.46-1.22-.69-1.97-.69h.01Z"/><path class="cls-1" d="m58.34,96.14h1.63v13.11h-1.63v-1.61c-.81,1.24-1.99,1.85-3.54,1.85-1.31,0-2.43-.48-3.35-1.43s-1.39-2.12-1.39-3.49.46-2.54,1.39-3.49,2.04-1.43,3.35-1.43c1.55,0,2.73.62,3.54,1.85v-5.36Zm-3.33,11.78c.95,0,1.74-.32,2.38-.96s.96-1.44.96-2.39-.32-1.74-.96-2.39c-.64-.64-1.43-.96-2.38-.96s-1.72.32-2.36.96-.96,1.44-.96,2.39.32,1.75.96,2.39,1.42.96,2.36.96Z"/><path class="cls-1" d="m70.65,99.89h1.63v9.36h-1.63v-1.61c-.81,1.24-1.99,1.85-3.54,1.85-1.31,0-2.43-.48-3.35-1.43s-1.39-2.12-1.39-3.49.46-2.54,1.39-3.49,2.04-1.43,3.35-1.43c1.55,0,2.73.62,3.54,1.85v-1.61Zm-3.33,8.03c.95,0,1.74-.32,2.38-.96s.96-1.44.96-2.39-.32-1.74-.96-2.39c-.64-.64-1.43-.96-2.38-.96s-1.72.32-2.36.96-.96,1.44-.96,2.39.32,1.75.96,2.39,1.42.96,2.36.96Z"/><path class="cls-1" d="m82.97,96.14h1.63v13.11h-1.63v-1.61c-.81,1.24-1.99,1.85-3.54,1.85-1.31,0-2.43-.48-3.35-1.43s-1.39-2.12-1.39-3.49.46-2.54,1.39-3.49,2.04-1.43,3.35-1.43c1.55,0,2.73.62,3.54,1.85v-5.36Zm-3.33,11.78c.95,0,1.74-.32,2.38-.96s.96-1.44.96-2.39-.32-1.74-.96-2.39c-.64-.64-1.43-.96-2.38-.96s-1.72.32-2.36.96-.96,1.44-.96,2.39.32,1.75.96,2.39,1.42.96,2.36.96Z"/><path class="cls-1" d="m100.42,96.14h1.63v13.11h-1.63v-1.61c-.81,1.24-1.99,1.85-3.54,1.85-1.31,0-2.43-.48-3.35-1.43s-1.39-2.12-1.39-3.49.46-2.54,1.39-3.49,2.04-1.43,3.35-1.43c1.55,0,2.73.62,3.54,1.85v-5.36Zm-3.33,11.78c.95,0,1.74-.32,2.38-.96s.96-1.44.96-2.39-.32-1.74-.96-2.39c-.64-.64-1.43-.96-2.38-.96s-1.72.32-2.36.96-.96,1.44-.96,2.39.32,1.75.96,2.39,1.42.96,2.36.96Z"/><path class="cls-1" d="m106.11,105.32c.16.84.55,1.49,1.15,1.95.61.46,1.35.69,2.24.69,1.24,0,2.13-.46,2.7-1.37l1.39.79c-.91,1.41-2.28,2.12-4.12,2.12-1.49,0-2.69-.46-3.62-1.39s-1.4-2.11-1.4-3.53.46-2.58,1.37-3.52c.91-.94,2.09-1.4,3.54-1.4,1.37,0,2.49.48,3.36,1.45.87.97,1.3,2.13,1.3,3.49,0,.24-.02.48-.06.73h-7.85Zm3.24-4.14c-.87,0-1.6.25-2.17.74s-.93,1.15-1.07,1.98h6.25c-.14-.89-.49-1.56-1.05-2.02-.56-.46-1.22-.69-1.97-.69h.01Z"/><path class="cls-1" d="m130.31,109.25l-1.07-2.94h-5.89l-1.07,2.94h-1.85l4.89-13.11h1.97l4.89,13.11h-1.87Zm-6.37-4.57h4.71l-2.35-6.47-2.35,6.47h-.01Z"/><path class="cls-1" d="m135.32,102.39c0,.35.18.64.55.85.37.21.81.4,1.31.54s1.02.3,1.54.45.95.43,1.31.85.54.95.54,1.6c0,.85-.33,1.53-.98,2.04s-1.5.77-2.52.77c-.91,0-1.69-.2-2.34-.6s-1.11-.93-1.39-1.59l1.4-.81c.15.45.43.81.84,1.07s.91.39,1.48.39c.54,0,.98-.1,1.33-.31s.52-.53.52-.96c0-.36-.18-.65-.54-.87s-.8-.4-1.31-.56c-.51-.15-1.02-.31-1.53-.46-.51-.16-.95-.43-1.31-.83s-.54-.91-.54-1.54c0-.81.31-1.48.95-2,.63-.52,1.42-.79,2.37-.79.76,0,1.44.17,2.03.51.59.34,1.04.82,1.34,1.43l-1.37.77c-.34-.8-1-1.2-2-1.2-.46,0-.86.11-1.18.32-.32.21-.49.52-.49.91v.02Z"/><path class="cls-1" d="m147.68,101.46h-2.49v5.08c0,.46.09.79.27.98.18.19.46.29.83.3.37,0,.84,0,1.39-.03v1.46c-1.42.19-2.47.07-3.13-.35s-.99-1.21-.99-2.37v-5.08h-1.85v-1.57h1.85v-2.13l1.63-.49v2.62h2.49v1.57h0Z"/><path class="cls-1" d="m151.77,101.46c.54-1.16,1.51-1.74,2.92-1.74v1.7c-.8-.04-1.49.17-2.06.64-.57.46-.86,1.21-.86,2.23v4.96h-1.63v-9.36h1.63v1.57Z"/><path class="cls-1" d="m164.16,108.07c-.96.95-2.13,1.42-3.5,1.42s-2.54-.47-3.49-1.42c-.96-.95-1.43-2.12-1.43-3.5s.48-2.55,1.43-3.5c.96-.95,2.12-1.42,3.49-1.42s2.54.47,3.5,1.42,1.44,2.12,1.44,3.5-.48,2.55-1.44,3.5Zm-3.5-.17c.94,0,1.72-.32,2.36-.96s.96-1.43.96-2.38-.32-1.74-.96-2.38-1.42-.96-2.36-.96-1.7.32-2.34.96-.96,1.43-.96,2.38.32,1.74.96,2.38,1.42.96,2.34.96Z"/><path class="cls-1" d="m172.66,99.65c1.1,0,1.98.35,2.64,1.04s.99,1.63.99,2.82v5.75h-1.63v-5.66c0-.76-.21-1.35-.62-1.77-.41-.42-.98-.63-1.7-.63-.81,0-1.47.25-1.97.76s-.75,1.28-.75,2.33v4.96h-1.63v-9.36h1.63v1.35c.66-1.06,1.67-1.59,3.03-1.59h0Z"/><path class="cls-1" d="m186.91,108.07c-.96.95-2.13,1.42-3.5,1.42s-2.54-.47-3.49-1.42c-.96-.95-1.43-2.12-1.43-3.5s.48-2.55,1.43-3.5,2.12-1.42,3.49-1.42,2.54.47,3.5,1.42,1.44,2.12,1.44,3.5-.48,2.55-1.44,3.5Zm-3.5-.17c.94,0,1.72-.32,2.36-.96s.96-1.43.96-2.38-.32-1.74-.96-2.38-1.42-.96-2.36-.96-1.7.32-2.34.96-.96,1.43-.96,2.38.32,1.74.96,2.38,1.42.96,2.34.96Z"/><path class="cls-1" d="m200.86,99.65c1.05,0,1.9.34,2.55,1.02.65.68.97,1.6.97,2.76v5.82h-1.63v-5.77c0-.72-.19-1.29-.56-1.69-.38-.4-.87-.6-1.5-.6-.7,0-1.26.23-1.68.7-.42.47-.63,1.18-.63,2.14v5.21h-1.63v-5.77c0-.72-.18-1.29-.53-1.69-.36-.4-.84-.6-1.45-.6-.69,0-1.26.24-1.71.71-.46.47-.68,1.19-.68,2.13v5.21h-1.63v-9.36h1.63v1.25c.64-1,1.57-1.5,2.79-1.5s2.18.53,2.75,1.59c.65-1.06,1.63-1.59,2.94-1.59v.03Z"/><path class="cls-1" d="m207.1,109.25v-9.36h1.63v9.36h-1.63Zm.06-10.58h1.57l1.24-2.53h-1.93l-.88,2.53h0Z"/><path class="cls-1" d="m219.44,99.89h1.63v9.36h-1.63v-1.61c-.81,1.24-1.99,1.85-3.54,1.85-1.31,0-2.43-.48-3.35-1.43-.92-.96-1.39-2.12-1.39-3.49s.46-2.54,1.39-3.49c.92-.96,2.04-1.43,3.35-1.43,1.55,0,2.73.62,3.54,1.85v-1.61Zm-3.33,8.03c.95,0,1.74-.32,2.38-.96s.96-1.44.96-2.39-.32-1.74-.96-2.39c-.64-.64-1.43-.96-2.38-.96s-1.72.32-2.36.96-.96,1.44-.96,2.39.32,1.75.96,2.39,1.42.96,2.36.96Z"/><path class="cls-1" d="m236.89,96.14h1.63v13.11h-1.63v-1.61c-.81,1.24-1.99,1.85-3.54,1.85-1.31,0-2.43-.48-3.35-1.43-.92-.96-1.39-2.12-1.39-3.49s.46-2.54,1.39-3.49c.92-.96,2.04-1.43,3.35-1.43,1.55,0,2.73.62,3.54,1.85v-5.36Zm-3.33,11.78c.95,0,1.74-.32,2.38-.96s.96-1.44.96-2.39-.32-1.74-.96-2.39c-.64-.64-1.43-.96-2.38-.96s-1.72.32-2.36.96-.96,1.44-.96,2.39.32,1.75.96,2.39,1.42.96,2.36.96Z"/><path class="cls-1" d="m242.59,105.32c.16.84.55,1.49,1.15,1.95.6.46,1.35.69,2.24.69,1.24,0,2.13-.46,2.7-1.37l1.39.79c-.91,1.41-2.28,2.12-4.12,2.12-1.49,0-2.69-.46-3.62-1.39s-1.39-2.11-1.39-3.53.46-2.58,1.37-3.52c.91-.94,2.09-1.4,3.54-1.4,1.37,0,2.49.48,3.36,1.45.87.97,1.3,2.13,1.3,3.49,0,.24-.02.48-.06.73h-7.86Zm3.24-4.14c-.87,0-1.6.25-2.17.74s-.93,1.15-1.07,1.98h6.25c-.14-.89-.49-1.56-1.05-2.02s-1.22-.69-1.97-.69h.01Z"/><path class="cls-1" d="m252.81,109.25v-13.67h1.63v13.67h-1.63Z"/><path class="cls-1" d="m268.9,109.49c-1.99,0-3.62-.66-4.92-1.97s-1.94-2.92-1.94-4.83.65-3.52,1.94-4.83c1.29-1.31,2.93-1.97,4.92-1.97,1.2,0,2.3.29,3.3.86s1.79,1.35,2.35,2.32l-1.52.88c-.37-.72-.93-1.3-1.68-1.73-.74-.43-1.56-.65-2.46-.65-1.51,0-2.74.49-3.7,1.46-.96.97-1.43,2.19-1.43,3.65s.48,2.66,1.43,3.63,2.19,1.46,3.7,1.46c.9,0,1.72-.21,2.46-.65.74-.43,1.3-1,1.68-1.71l1.52.86c-.55.97-1.33,1.75-2.34,2.33s-2.12.87-3.31.87v.02Z"/><path class="cls-1" d="m284.51,99.89h1.63v9.36h-1.63v-1.61c-.81,1.24-1.99,1.85-3.54,1.85-1.31,0-2.43-.48-3.35-1.43-.92-.96-1.39-2.12-1.39-3.49s.46-2.54,1.39-3.49c.92-.96,2.04-1.43,3.35-1.43,1.55,0,2.73.62,3.54,1.85v-1.61Zm-3.33,8.03c.95,0,1.74-.32,2.38-.96s.96-1.44.96-2.39-.32-1.74-.96-2.39c-.64-.64-1.43-.96-2.38-.96s-1.72.32-2.36.96c-.64.64-.96,1.44-.96,2.39s.32,1.75.96,2.39c.64.64,1.42.96,2.36.96Z"/><path class="cls-1" d="m290.71,101.46c.54-1.16,1.51-1.74,2.92-1.74v1.7c-.8-.04-1.49.17-2.06.64s-.86,1.21-.86,2.23v4.96h-1.63v-9.36h1.63v1.57h0Z"/><path class="cls-1" d="m296.52,98.19c-.31,0-.57-.11-.79-.32s-.32-.47-.32-.77.11-.56.32-.78c.21-.22.47-.33.79-.33s.56.11.77.33.32.48.32.78-.11.56-.32.77-.47.32-.77.32Zm-.82,11.07v-9.36h1.63v9.36h-1.63Z"/><path class="cls-1" d="m305.45,99.65c1.31,0,2.43.48,3.35,1.43s1.39,2.12,1.39,3.49-.46,2.54-1.39,3.49-2.04,1.43-3.35,1.43c-1.55,0-2.73-.62-3.54-1.85v1.61h-1.63v-13.11h1.63v5.36c.81-1.24,1.99-1.85,3.54-1.85Zm-.21,8.28c.94,0,1.72-.32,2.36-.96.64-.64.96-1.44.96-2.39s-.32-1.74-.96-2.39c-.64-.64-1.42-.96-2.36-.96s-1.74.32-2.38.96-.96,1.44-.96,2.39.32,1.75.96,2.39c.64.64,1.43.96,2.38.96Z"/><path class="cls-1" d="m313.74,105.32c.16.84.55,1.49,1.15,1.95s1.35.69,2.24.69c1.24,0,2.13-.46,2.7-1.37l1.39.79c-.91,1.41-2.28,2.12-4.12,2.12-1.49,0-2.69-.46-3.62-1.39s-1.39-2.11-1.39-3.53.46-2.58,1.37-3.52c.91-.94,2.09-1.4,3.54-1.4,1.37,0,2.49.48,3.36,1.45.87.97,1.3,2.13,1.3,3.49,0,.24-.02.48-.06.73h-7.86Zm3.24-4.14c-.87,0-1.6.25-2.17.74s-.93,1.15-1.07,1.98h6.25c-.14-.89-.49-1.56-1.05-2.02s-1.22-.69-1.97-.69h.01Z"/><path class="cls-1" d="m233.53,60.73c-3.33-3.33-5.72-7.05-7.17-11.16-2.36,1.77-4.79,3.43-7.38,4.85.64,1.5,1.39,2.97,2.23,4.42,3.49,5.98,8.23,10.72,14.22,14.22,5.98,3.49,12.51,5.24,19.57,5.24h66.56v-8.7h-66.56c-8.4,0-15.55-2.96-21.46-8.86"/><path class="cls-1" d="m254.99.24c-7.06,0-13.59,1.75-19.57,5.24-5.98,3.49-10.72,8.23-14.22,14.22-1.52,2.61-2.72,5.32-3.58,8.12,3.18-.88,6.47-1.26,9.76-1.37,1.46-3.13,3.51-6.02,6.14-8.65,5.91-5.91,13.06-8.86,21.46-8.86h66.56V.24h-66.56,0Z"/></g></g></svg>