<?xml version="1.0" encoding="UTF-8" standalone="no"?>
<svg
   id="Layer_1"
   data-name="Layer 1"
   viewBox="0 0 1920 1080"
   version="1.1"
   sodipodi:docname="sac-logo-25-aniversario-white.svg"
   inkscape:version="1.3.2 (091e20e, 2023-11-25, custom)"
   xmlns:inkscape="http://www.inkscape.org/namespaces/inkscape"
   xmlns:sodipodi="http://sodipodi.sourceforge.net/DTD/sodipodi-0.dtd"
   xmlns="http://www.w3.org/2000/svg"
   xmlns:svg="http://www.w3.org/2000/svg">
  <sodipodi:namedview
     id="namedview34"
     pagecolor="#ffffff"
     bordercolor="#000000"
     borderopacity="0.25"
     inkscape:showpageshadow="2"
     inkscape:pageopacity="0.0"
     inkscape:pagecheckerboard="0"
     inkscape:deskcolor="#d1d1d1"
     inkscape:zoom="1.0861111"
     inkscape:cx="959.84655"
     inkscape:cy="540"
     inkscape:window-width="3440"
     inkscape:window-height="1369"
     inkscape:window-x="-8"
     inkscape:window-y="-8"
     inkscape:window-maximized="1"
     inkscape:current-layer="g34" />
  <defs
     id="defs1">
    <style
       id="style1">
      .cls-1 {
        font-size: 205.84px;
      }

      .cls-1, .cls-2, .cls-3, .cls-4 {
        fill: #fff;
      }

      .cls-1, .cls-3 {
        font-family: Gilroy-Bold, Gilroy-Bold;
        font-weight: 700;
      }

      .cls-3 {
        font-size: 66.59px;
      }

      .cls-4 {
        font-family: Gilroy-Medium, Gilroy-Medium;
        font-size: 76.86px;
        font-weight: 500;
      }

      .cls-5 {
        letter-spacing: 0em;
      }

      .cls-6 {
        letter-spacing: .02em;
      }

      .cls-7 {
        letter-spacing: .03em;
      }

      .cls-8 {
        letter-spacing: .02em;
      }

      .cls-9 {
        letter-spacing: .02em;
      }

      .cls-10 {
        letter-spacing: .02em;
      }

      .cls-11 {
        letter-spacing: .02em;
      }

      .cls-12 {
        letter-spacing: .02em;
      }

      .cls-13 {
        letter-spacing: .02em;
      }

      .cls-14 {
        letter-spacing: .02em;
      }

      .cls-15 {
        letter-spacing: .04em;
      }

      .cls-16 {
        letter-spacing: .04em;
      }

      .cls-17 {
        letter-spacing: 0em;
      }
    </style>
  </defs>
  <path
     d="M 5.5576799,0 V -21.20152 L 54.753439,-71.838159 q 16.4672,-17.290559 16.4672,-28.817601 0,-8.43944 -5.35184,-13.58544 -5.146,-5.146 -13.3796,-5.146 -16.26136,0 -24.08328,16.87888 L 4.5284799,-116.50544 q 6.7927201,-14.82048 19.5548001,-22.6424 12.762079,-7.82192 27.994239,-7.82192 19.5548,0 33.551919,12.3504 13.99712,12.14456 13.99712,32.9344 0,22.436561 -23.671599,46.108161 L 47.754879,-27.37672 H 101.8908 V 0 Z"
     id="text1"
     class="cls-1"
     style="font-weight:700;font-size:205.84px;font-family:Gilroy-Bold, Gilroy-Bold;fill:#ffffff"
     transform="translate(1272.2 538.65)"
     aria-label="2" />
  <path
     d="m 57.635199,-91.598798 q 20.78984,0 34.992799,12.556239 14.202962,12.3504 14.202962,34.58112 0,22.230719 -15.026322,34.7869592 -14.820479,12.5562397 -36.433679,12.5562397 -17.4964,0 -30.875999,-7.8219198 Q 11.11536,-12.76208 5.1459999,-27.99424 L 29.435119,-42.197199 q 5.35184,17.290559 25.93584,17.290559 10.90952,0 16.87888,-5.145999 6.1752,-5.35184 6.1752,-14.4088 0,-8.85112 -5.96936,-14.20296 -5.96936,-5.35184 -16.26136,-5.35184 H 12.55624 L 18.31976,-144.088 h 81.71848 v 26.55336 H 44.667279 l -1.85256,25.935842 z"
     id="text2"
     class="cls-1"
     style="font-weight:700;font-size:205.84px;font-family:Gilroy-Bold, Gilroy-Bold;fill:#ffffff"
     transform="translate(1374.5 501.8)"
     aria-label="5" />
  <g
     id="g3">
    <path
       class="cls-2"
       d="M1550.58,404.05c-9.39-1.09-17.9-8.62-18.71-18.71-.38-4.72-2.43-19.11-4.01-29.82-.3-2.04-3.26-2.02-3.53.02-1.42,10.73-3.38,25.13-4.23,29.79-2.07,11.49-8.91,17.34-18.7,18.69-4.68.64-19.04,2.65-29.74,4.14-2.05.28-2.05,3.23,0,3.52,10.72,1.5,25.07,3.51,29.75,4.13,12.45,1.65,17.47,9.6,18.69,18.69.64,4.73,2.67,19.31,4.17,30.06.29,2.04,3.23,2.05,3.53,0,1.55-10.74,3.62-25.32,4.1-30.07,1.07-10.48,8.74-17.6,18.69-18.71,4.74-.52,19.33-2.57,30.07-4.11,2.04-.29,2.04-3.23,0-3.52-10.75-1.53-25.33-3.58-30.07-4.13"
       id="path2" />
    <path
       class="cls-2"
       d="M1579.96,489.88c-8.63-1-16.45-7.92-17.2-17.2-.35-4.34-2.23-17.57-3.68-27.41-.27-1.88-2.99-1.86-3.24.02-1.31,9.86-3.11,23.1-3.89,27.39-1.9,10.56-8.19,15.94-17.19,17.18-4.3.59-17.5,2.43-27.34,3.81-1.88.26-1.88,2.97,0,3.23,9.85,1.38,23.04,3.23,27.35,3.79,11.44,1.51,16.06,8.82,17.18,17.18.59,4.35,2.45,17.75,3.84,27.63.26,1.88,2.97,1.88,3.24,0,1.43-9.87,3.33-23.27,3.77-27.64.98-9.64,8.03-16.18,17.18-17.2,4.36-.48,17.77-2.37,27.64-3.78,1.88-.26,1.88-2.97,0-3.23-9.88-1.4-23.29-3.29-27.64-3.79"
       id="path3" />
  </g>
  <g
     id="text4"
     class="cls-3"
     style="font-weight:700;font-size:66.59px;font-family:Gilroy-Bold, Gilroy-Bold;fill:#ffffff"
     transform="translate(1384.98 563.28)"
     aria-label="años">
    <path
       style="letter-spacing:0.04em"
       d="m 29.233008,-33.294998 h 8.59011 V 0 h -8.59011 v -3.9288098 q -3.862219,4.86106975 -10.854169,4.86106975 -6.659,0 -11.4534794,-5.06083975 -4.7278897,-5.1274297 -4.7278897,-12.5189192 0,-7.39149 4.7278897,-12.452329 4.7944794,-5.12743 11.4534794,-5.12743 6.99195,0 10.854169,4.86107 z M 13.384589,-9.8553195 q 2.59701,2.5970099 6.59241,2.5970099 3.9954,0 6.59241,-2.5970099 2.663599,-2.6635995 2.663599,-6.7921795 0,-4.12858 -2.663599,-6.72559 -2.59701,-2.6636 -6.59241,-2.6636 -3.9954,0 -6.59241,2.6636 -2.59701,2.59701 -2.59701,6.72559 0,4.12858 2.59701,6.7921795 z M 63.327053,-39.421278 q -1.93111,-1.3318 -2.73019,-1.06544 -0.79908,0.26636 -0.79908,2.6636 h -6.92536 q 0,-3.06314 0.6659,-5.19402 0.73249,-2.19747 1.93111,-3.262909 1.19862,-1.06544 2.73019,-1.3318 1.59816,-0.33295 3.3295,0.13318 1.73134,0.46613 3.46268,1.59816 1.931109,1.331799 2.663599,1.065439 0.79908,-0.26636 0.79908,-2.663599 h 6.99195 q 0,3.795629 -1.13203,6.259459 -1.06544,2.39724 -2.86337,3.19632 -1.73134,0.73249 -3.86222,0.39954 -2.06429,-0.39954 -4.261759,-1.79793 z m 3.462679,5.19402 q 5.46038,0 8.98965,3.66245 3.59586,3.662449 3.59586,10.121679 V 0 h -8.59011 v -19.377689 q 0,-3.3295 -1.79793,-5.06084 -1.79793,-1.79793 -4.794479,-1.79793 -3.3295,0 -5.3272,2.06429 -1.9977,2.06429 -1.9977,6.19287 V 0 h -8.59011 v -33.294998 h 8.59011 v 3.72904 q 3.12973,-4.6613 9.921909,-4.6613 z m 50.941318,30.0986782 q -5.12743,5.06083975 -12.51892,5.06083975 -7.391485,0 -12.518914,-5.06083975 -5.06084,-5.1274297 -5.06084,-12.5189192 0,-7.39149 5.06084,-12.452329 5.127429,-5.12743 12.518914,-5.12743 7.39149,0 12.51892,5.12743 5.12743,5.060839 5.12743,12.452329 0,7.3914895 -5.12743,12.5189192 z M 98.752905,-10.055089 q 2.597015,2.5970094 6.459225,2.5970094 3.86222,0 6.45923,-2.5970094 2.59701,-2.59701 2.59701,-6.59241 0,-3.9954 -2.59701,-6.59241 -2.59701,-2.59701 -6.45923,-2.59701 -3.86221,0 -6.459225,2.59701 -2.53042,2.59701 -2.53042,6.59241 0,3.9954 2.53042,6.59241 z"
       id="path35" />
    <path
       d="m 138.91302,-23.839219 q 0,1.3318 1.73134,2.19747 1.79793,0.79908 4.32835,1.46498 2.53042,0.59931 5.06084,1.59816 2.53042,0.93226 4.26176,3.19632 1.79793,2.26406 1.79793,5.6601495 0,5.1274298 -3.86222,7.9242096 -3.79563,2.73018985 -9.52237,2.73018985 -10.25486,0 -13.9839,-7.92420955 l 7.45808,-4.1951694 q 1.46498,4.3283494 6.52582,4.3283494 4.59471,0 4.59471,-2.8633699 0,-1.3317995 -1.79793,-2.1308795 -1.73134,-0.86567 -4.26176,-1.53157 -2.53042,-0.6659 -5.06084,-1.66475 -2.53042,-0.99885 -4.32835,-3.12973 -1.73134,-2.19747 -1.73134,-5.46038 0,-4.927659 3.59586,-7.724439 3.66245,-2.86337 9.05624,-2.86337 4.06199,0 7.39149,1.86452 3.3295,1.79793 5.26061,5.194019 l -7.3249,3.9954 q -1.59816,-3.39609 -5.3272,-3.39609 -1.66475,0 -2.79678,0.73249 -1.06544,0.73249 -1.06544,1.9977 z"
       id="path36" />
  </g>
  <g
     id="g34">
    <path
       class="cls-2"
       d="M380.24,300.26h344.13v35.69h-344.13c-14.95,0-27.61,5.19-37.98,15.56-10.38,10.38-15.56,22.96-15.56,37.76s5.18,27.38,15.56,37.75c10.37,10.37,23.03,15.56,37.98,15.56h255.35c24.4,0,45.31,8.69,62.69,26.09,17.39,17.39,26.09,38.29,26.09,62.69,0,16.17-3.97,31.12-11.9,44.85-7.93,13.73-18.76,24.56-32.49,32.49-13.73,7.93-28.53,11.9-44.39,11.9h-344.59v-35.69h344.59c14.64,0,27.15-5.19,37.52-15.56,10.37-10.37,15.56-22.95,15.56-37.76s-5.19-27.38-15.56-37.75c-10.37-10.37-22.88-15.56-37.52-15.56h-255.35c-24.71,0-45.76-8.69-63.15-26.08-17.39-17.39-26.08-38.37-26.08-62.92s8.69-45.54,26.08-62.92c17.39-17.39,38.44-26.09,63.15-26.09"
       id="path4" />
    <path
       class="cls-2"
       d="M1072.17,300.26h70.93v109.41h-35.69v-73.71h-35.24c-16.78,0-31.43,5.65-43.93,16.93l-267.71,267.71h-50.79l294.25-294.25c19.22-17.39,41.95-26.09,68.19-26.09"
       id="path5" />
    <path
       class="cls-2"
       d="M1060.22,360.92c10.16-2.72,20.61,3.31,23.33,13.47,2.73,10.16-3.31,20.61-13.47,23.33-10.16,2.72-20.61-3.31-23.33-13.47-2.73-10.16,3.31-20.61,13.47-23.33"
       id="path6" />
    <path
       class="cls-2"
       d="M808.84,403.67c-9.04-1.05-17.23-8.3-18.02-18.02-.37-4.54-2.34-18.4-3.85-28.71-.29-1.97-3.13-1.95-3.39.02-1.38,10.33-3.26,24.2-4.07,28.69-2,11.07-8.58,16.7-18.01,18.01-4.51.62-18.34,2.55-28.65,3.99-1.97.27-1.97,3.11,0,3.39,10.31,1.44,24.14,3.38,28.65,3.97,11.98,1.59,16.82,9.24,17.99,18.01.61,4.55,2.57,18.59,4.02,28.94.27,1.97,3.11,1.97,3.39,0,1.49-10.34,3.49-24.38,3.95-28.95,1.03-10.1,8.42-16.95,18-18.02,4.56-.5,18.61-2.48,28.95-3.95,1.96-.28,1.96-3.11,0-3.39-10.34-1.47-24.38-3.45-28.95-3.97"
       id="path7" />
    <path
       class="cls-2"
       d="M888.03,326.91c-5.19-.6-9.89-4.76-10.34-10.34-.21-2.61-1.34-10.56-2.21-16.47-.16-1.13-1.8-1.12-1.95.01-.79,5.93-1.87,13.88-2.34,16.46-1.14,6.35-4.92,9.58-10.33,10.33-2.58.35-10.52,1.46-16.43,2.29-1.13.15-1.13,1.78,0,1.94,5.92.83,13.85,1.94,16.44,2.28,6.88.91,9.65,5.3,10.32,10.33.35,2.61,1.48,10.67,2.31,16.61.16,1.13,1.78,1.13,1.95,0,.86-5.93,2-13.99,2.27-16.61.59-5.79,4.83-9.72,10.32-10.34,2.62-.29,10.68-1.42,16.61-2.27,1.13-.16,1.13-1.78,0-1.94-5.94-.84-13.99-1.98-16.61-2.28"
       id="path8" />
    <path
       class="cls-2"
       d="M1072.16,582.78c-24.84,9.25-49.41,16.87-72.48,22.56,24.21,15.86,55.25,20.38,84.38,9.48,29.18-10.85,49.69-34.64,57.53-62.45-21.15,10.8-44.67,21.15-69.43,30.41M1262.57,431.05c-10.52-18.93-69.38-10.03-146.56,17.02-1.09-1.14-2.23-2.19-3.37-3.19-25.12-22.66-61.73-30.82-95.6-18.19-33.87,12.67-56.16,42.81-60.31,76.41-.19,1.55-.37,3.15-.5,4.69-78.54,33-122.03,71.06-115.19,89.38,9.71,25.98,130.96,6.08,228.34-30.3,97.42-36.38,206.66-111.57,193.19-135.81M921.77,555.88c-3.79-10.12,9.71-23.06,34.19-39.24,0,1.5.04.49.09,2,.41,9.62,2.32,19.33,5.88,28.86,1.87,5.06,4.19,9.89,6.84,14.4.68,1.23,1.41,2.42,2.19,3.65-26.94,3.01-45.58.04-49.19-9.67M1142.82,501.31c-.23-1.37-.46-2.78-.73-4.15-.96-5.15-2.37-10.3-4.28-15.36-3.56-9.52-8.48-18.09-14.5-25.62-.95-1.18-1.4-1.86-2.45-3,29.13-3.83,49.04-1.52,52.83,8.65,3.6,9.67-8.53,24.16-30.86,39.48"
       id="path9" />
    <g
       id="text33"
       class="cls-4"
       style="font-weight:500;font-size:76.86px;font-family:Gilroy-Medium, Gilroy-Medium;fill:#ffffff"
       transform="translate(288.85 747.66)"
       aria-label="SociedaddeAstronomíadelCaribe">
      <path
         style="letter-spacing:0.04em"
         d="m 23.13486,0.99918001 q -7.53228,0 -12.91248,-3.53556001 -5.30334,-3.53556 -7.45542,-9.68436 l 6.1488001,-3.53556 q 3.1512599,9.76122 14.3728199,9.76122 5.53392,0 8.4546,-2.2289401 2.92068,-2.3057999 2.92068,-6.0719399 0,-3.843 -2.92068,-5.7645 -2.92068,-1.9215 -9.76122,-4.07358 -3.38184,-1.07604 -5.14962,-1.69092 -1.76778,-0.69174 -4.45788,-1.99836 -2.6132399,-1.38348 -3.9198599,-2.76696 -1.30662,-1.46034 -2.3826601,-3.76614 -0.99918,-2.3058 -0.99918,-5.22648 0,-6.99426 4.9190401,-11.06784 4.9190399,-4.15044 11.9901599,-4.15044 6.37938,0 11.06784,3.22812 4.76532,3.22812 7.14798,8.53146 l -5.99508,3.4587 q -3.4587,-8.30088 -12.22074,-8.30088 -4.38102,0 -7.07112,2.15208 -2.6901,2.15208 -2.6901,5.84136 0,3.53556 2.53638,5.3802 2.53638,1.84464 8.76204,3.843 2.22894,0.69174 3.15126,0.99918 0.92232,0.30744 2.84382,1.07604 1.99836,0.7686 2.92068,1.22976 0.92232,0.46116 2.45952,1.30662 1.61406,0.84546 2.38266,1.61406 0.7686,0.7686 1.76778,1.9215 1.07604,1.07604 1.5372,2.22894 0.46116,1.1529 0.7686,2.6901 0.3843,1.46034 0.3843,3.15126 0,7.0711199 -5.14962,11.29842 -5.14962,4.15044001 -13.4505,4.15044001 z"
         id="path37" />
      <path
         style="letter-spacing:0.02em"
         d="m 84.777681,-4.84218 q -5.91822,5.84136001 -14.37282,5.84136001 -8.4546,0 -14.37282,-5.84136001 -5.841361,-5.84136 -5.841361,-14.37282 0,-8.53146 5.841361,-14.37282 5.91822,-5.84136 14.37282,-5.84136 8.4546,0 14.37282,5.84136 5.91822,5.84136 5.91822,14.37282 0,8.53146 -5.91822,14.37282 z m -14.37282,-0.69174 q 5.7645,0 9.68436,-3.9198601 3.91986,-3.9198599 3.91986,-9.7612199 0,-5.84136 -3.91986,-9.76122 -3.91986,-3.91986 -9.68436,-3.91986 -5.68764,0 -9.6075,3.91986 -3.91986,3.91986 -3.91986,9.76122 0,5.84136 3.91986,9.7612199 3.91986,3.9198601 9.6075,3.9198601 z"
         id="path38" />
      <path
         style="letter-spacing:0.02em"
         d="m 118.58486,0.99918001 q -8.68518,0 -14.44968,-5.76450001 -5.764503,-5.84136 -5.764503,-14.44968 0,-8.60832 5.764503,-14.37282 5.7645,-5.84136 14.44968,-5.84136 5.68764,0 10.22238,2.76696 4.53474,2.6901 6.76368,7.3017 l -5.61078,3.22812 q -1.46034,-3.0744 -4.53474,-4.91904 -2.99754,-1.84464 -6.84054,-1.84464 -5.7645,0 -9.68436,3.91986 -3.843,3.91986 -3.843,9.76122 0,5.7645 3.843,9.6843599 3.91986,3.9198601 9.68436,3.9198601 3.843,0 6.9174,-1.7677801 3.0744,-1.84464 4.68846,-4.9190399 l 5.68764,3.3049799 q -2.45952,4.5347401 -7.07112,7.3017001 -4.6116,2.69010001 -10.22238,2.69010001 z"
         id="path39" />
      <path
         style="letter-spacing:0.02em"
         d="m 147.71459,-45.42426 q -1.9215,0 -3.22812,-1.30662 -1.30662,-1.30662 -1.30662,-3.15126 0,-1.84464 1.30662,-3.15126 1.30662,-1.38348 3.22812,-1.38348 1.84464,0 3.15126,1.38348 1.30662,1.30662 1.30662,3.15126 0,1.84464 -1.30662,3.15126 -1.30662,1.30662 -3.15126,1.30662 z M 144.33275,0 v -38.43 h 6.68682 V 0 Z"
         id="path40" />
      <path
         style="letter-spacing:0.02em"
         d="m 167.85122,-16.1406 q 0.99918,5.14962 4.68846,7.9934399 3.76614,2.8438201 9.2232,2.8438201 7.60914,0 11.06784,-5.61078 l 5.68764,3.2281199 q -5.61078,8.68518011 -16.9092,8.68518011 -9.14634,0 -14.91084,-5.68764001 -5.68764,-5.7645 -5.68764,-14.52654 0,-8.68518 5.61078,-14.44968 5.61078,-5.7645 14.52654,-5.7645 8.4546,0 13.75794,5.99508 5.3802,5.91822 5.3802,14.29596 0,1.46034 -0.23058,2.99754 z M 181.148,-33.12666 q -5.3802,0 -8.91576,3.0744 -3.53556,2.99754 -4.38102,8.0703 h 25.67124 q -0.84546,-5.45706 -4.30416,-8.30088 -3.4587,-2.84382 -8.0703,-2.84382 z"
         id="path41" />
      <path
         style="letter-spacing:0.02em"
         d="m 241.5528,-53.802 h 6.68682 V 0 h -6.68682 v -6.6099601 q -4.9959,7.60914011 -14.52654,7.60914011 -8.0703,0 -13.75794,-5.84136001 -5.68764,-5.91822 -5.68764,-14.37282 0,-8.4546 5.68764,-14.29596 5.68764,-5.91822 13.75794,-5.91822 9.53064,0 14.52654,7.60914 z m -13.68108,48.34494 q 5.84136,0 9.76122,-3.9198601 3.91986,-3.9967199 3.91986,-9.8380799 0,-5.84136 -3.91986,-9.76122 -3.91986,-3.99672 -9.76122,-3.99672 -5.7645,0 -9.68436,3.99672 -3.91986,3.91986 -3.91986,9.76122 0,5.84136 3.91986,9.8380799 3.91986,3.9198601 9.68436,3.9198601 z"
         id="path42" />
      <path
         style="letter-spacing:0.02em"
         d="m 292.1228,-38.43 h 6.68682 V 0 h -6.68682 v -6.6099601 q -4.9959,7.60914011 -14.52654,7.60914011 -8.0703,0 -13.75794,-5.84136001 -5.68764,-5.91822 -5.68764,-14.37282 0,-8.4546 5.68764,-14.29596 5.68764,-5.91822 13.75794,-5.91822 9.53064,0 14.52654,7.60914 z m -13.68108,32.97294 q 5.84136,0 9.76122,-3.9198601 3.91986,-3.9967199 3.91986,-9.8380799 0,-5.84136 -3.91986,-9.76122 -3.91986,-3.99672 -9.76122,-3.99672 -5.7645,0 -9.68436,3.99672 -3.91986,3.91986 -3.91986,9.76122 0,5.84136 3.91986,9.8380799 3.91986,3.9198601 9.68436,3.9198601 z M 342.31233,-53.802 h 6.68682 V 0 h -6.68682 v -6.6099601 q -4.9959,7.60914011 -14.52654,7.60914011 -8.0703,0 -13.75794,-5.84136001 -5.68764,-5.91822 -5.68764,-14.37282 0,-8.4546 5.68764,-14.29596 5.68764,-5.91822 13.75794,-5.91822 9.53064,0 14.52654,7.60914 z m -13.68108,48.34494 q 5.84136,0 9.76122,-3.9198601 3.91986,-3.9967199 3.91986,-9.8380799 0,-5.84136 -3.91986,-9.76122 -3.91986,-3.99672 -9.76122,-3.99672 -5.7645,0 -9.68436,3.99672 -3.91986,3.91986 -3.91986,9.76122 0,5.84136 3.91986,9.8380799 3.91986,3.9198601 9.68436,3.9198601 z"
         id="path43" />
      <path
         style="letter-spacing:0.02em"
         d="m 414.25279,-53.802 h 6.68682 V 0 h -6.68682 v -6.6099601 q -4.9959,7.60914011 -14.52654,7.60914011 -8.0703,0 -13.75794,-5.84136001 -5.68764,-5.91822 -5.68764,-14.37282 0,-8.4546 5.68764,-14.29596 5.68764,-5.91822 13.75794,-5.91822 9.53064,0 14.52654,7.60914 z m -13.68108,48.34494 q 5.84136,0 9.76122,-3.9198601 3.91986,-3.9967199 3.91986,-9.8380799 0,-5.84136 -3.91986,-9.76122 -3.91986,-3.99672 -9.76122,-3.99672 -5.7645,0 -9.68436,3.99672 -3.91986,3.91986 -3.91986,9.76122 0,5.84136 3.91986,9.8380799 3.91986,3.9198601 9.68436,3.9198601 z m 36.73903,-10.68354 q 0.99918,5.14962 4.68846,7.9934399 3.76614,2.8438201 9.2232,2.8438201 7.60914,0 11.06784,-5.61078 l 5.68764,3.2281199 q -5.61078,8.68518011 -16.9092,8.68518011 -9.14634,0 -14.91084,-5.68764001 -5.68764,-5.7645 -5.68764,-14.52654 0,-8.68518 5.61078,-14.44968 5.61078,-5.7645 14.52654,-5.7645 8.4546,0 13.75794,5.99508 5.3802,5.91822 5.3802,14.29596 0,1.46034 -0.23058,2.99754 z m 13.29678,-16.98606 q -5.3802,0 -8.91576,3.0744 -3.53556,2.99754 -4.38102,8.0703 h 25.67124 q -0.84546,-5.45706 -4.30416,-8.30088 -3.4587,-2.84382 -8.0703,-2.84382 z"
         id="path44" />
      <path
         style="letter-spacing:0.02em"
         d="m 536.83697,0 -4.38102,-12.06702 h -24.2109 L 503.86403,0 h -7.60914 l 20.06046,-53.802 h 8.0703 L 544.44612,0 Z m -26.1324,-18.75384 h 19.29186 l -9.68436,-26.5167 z"
         id="path45" />
      <path
         style="letter-spacing:0em"
         d="m 557.42729,-28.0539 q 0,2.22894 2.22894,3.61242 2.22894,1.30662 5.3802,2.15208 3.15126,0.7686 6.30252,1.84464 3.15126,0.99918 5.3802,3.53556 2.22894,2.45952 2.22894,6.37938 0,5.22648 -4.07358,8.37774 -3.99672,3.15126001 -10.29924,3.15126001 -5.61078,0 -9.6075,-2.45952001 -3.99672,-2.45952 -5.68764,-6.5331001 l 5.7645,-3.3049799 q 0.92232,2.7669599 3.4587,4.3810199 2.53638,1.6140601 6.07194,1.6140601 3.30498,0 5.45706,-1.2297601 2.15208,-1.30662 2.15208,-3.9967199 0,-2.22894 -2.22894,-3.53556 -2.22894,-1.38348 -5.3802,-2.15208 -3.15126,-0.84546 -6.30252,-1.9215 -3.15126,-1.07604 -5.3802,-3.53556 -2.22894,-2.45952 -2.22894,-6.30252 0,-4.9959 3.843,-8.22402 3.91986,-3.22812 9.76122,-3.22812 4.68846,0 8.30088,2.15208 3.68928,2.07522 5.53392,5.84136 l -5.61078,3.15126 q -2.07522,-4.91904 -8.22402,-4.91904 -2.84382,0 -4.84218,1.38348 -1.99836,1.30662 -1.99836,3.76614 z"
         id="path46" />
      <path
         style="letter-spacing:0.02em"
         d="m 608.15867,-31.97376 h -10.22238 v 20.82906 q 0,2.8438199 1.07604,4.0735799 1.1529,1.1529001 3.4587,1.2297601 2.3058,0 5.68764,-0.15372 V 0 q -8.76204,1.1529 -12.83562,-1.38348 -4.07358,-2.61324 -4.07358,-9.76122 v -20.82906 h -7.60914 V -38.43 h 7.60914 v -8.76204 l 6.68682,-1.99836 V -38.43 h 10.22238 z"
         id="path47" />
      <path
         style="letter-spacing:0em"
         d="m 624.9096,-31.97376 q 3.30498,-7.14798 11.99016,-7.14798 v 6.99426 q -4.91904,-0.23058 -8.4546,2.61324 -3.53556,2.84382 -3.53556,9.14634 V 0 h -6.68682 v -38.43 h 6.68682 z"
         id="path48" />
      <path
         style="letter-spacing:0.02em"
         d="m 675.78771,-4.84218 q -5.91822,5.84136001 -14.37282,5.84136001 -8.4546,0 -14.37282,-5.84136001 -5.84136,-5.84136 -5.84136,-14.37282 0,-8.53146 5.84136,-14.37282 5.91822,-5.84136 14.37282,-5.84136 8.4546,0 14.37282,5.84136 5.91822,5.84136 5.91822,14.37282 0,8.53146 -5.91822,14.37282 z m -14.37282,-0.69174 q 5.7645,0 9.68436,-3.9198601 3.91986,-3.9198599 3.91986,-9.7612199 0,-5.84136 -3.91986,-9.76122 -3.91986,-3.91986 -9.68436,-3.91986 -5.68764,0 -9.6075,3.91986 -3.91986,3.91986 -3.91986,9.76122 0,5.84136 3.91986,9.7612199 3.91986,3.9198601 9.6075,3.9198601 z"
         id="path49" />
      <path
         style="letter-spacing:0.02em"
         d="m 710.68087,-39.42918 q 6.76368,0 10.83726,4.30416 4.07358,4.2273 4.07358,11.529 V 0 h -6.68682 v -23.21172 q 0,-4.68846 -2.53638,-7.22484 -2.53638,-2.61324 -6.99426,-2.61324 -4.9959,0 -8.0703,3.15126 -3.0744,3.0744 -3.0744,9.53064 V 0 h -6.68682 v -38.43 h 6.68682 v 5.53392 q 4.07358,-6.5331 12.45132,-6.5331 z"
         id="path50" />
      <path
         style="letter-spacing:0.02em"
         d="m 769.16765,-4.84218 q -5.91822,5.84136001 -14.37282,5.84136001 -8.4546,0 -14.37282,-5.84136001 -5.84136,-5.84136 -5.84136,-14.37282 0,-8.53146 5.84136,-14.37282 5.91822,-5.84136 14.37282,-5.84136 8.4546,0 14.37282,5.84136 5.91822,5.84136 5.91822,14.37282 0,8.53146 -5.91822,14.37282 z m -14.37282,-0.69174 q 5.7645,0 9.68436,-3.9198601 3.91986,-3.9198599 3.91986,-9.7612199 0,-5.84136 -3.91986,-9.76122 -3.91986,-3.91986 -9.68436,-3.91986 -5.68764,0 -9.6075,3.91986 -3.91986,3.91986 -3.91986,9.76122 0,5.84136 3.91986,9.7612199 3.91986,3.9198601 9.6075,3.9198601 z"
         id="path51" />
      <path
         style="letter-spacing:0.02em"
         d="m 826.42714,-39.42918 q 6.45624,0 10.45296,4.2273 3.99672,4.15044 3.99672,11.29842 V 0 H 834.19 v -23.67288 q 0,-4.45788 -2.3058,-6.9174 -2.3058,-2.45952 -6.1488,-2.45952 -4.30416,0 -6.9174,2.92068 -2.53638,2.84382 -2.53638,8.76204 V 0 h -6.68682 v -23.67288 q 0,-4.45788 -2.22894,-6.9174 -2.15208,-2.45952 -5.91822,-2.45952 -4.2273,0 -7.07112,2.92068 -2.76696,2.92068 -2.76696,8.76204 V 0 h -6.68682 v -38.43 h 6.68682 v 5.14962 q 3.91986,-6.1488 11.45214,-6.1488 7.76286,0 11.29842,6.5331 3.99672,-6.5331 12.06702,-6.5331 z"
         id="path52" />
      <path
         style="letter-spacing:0.02em"
         d="m 852.24334,-43.4259 h 6.45624 l 5.07276,-10.3761 h -7.91658 z M 852.01276,0 v -38.43 h 6.68682 V 0 Z m 50.26639,-38.43 h 6.68682 V 0 h -6.68682 v -6.6099601 q -4.9959,7.60914011 -14.52654,7.60914011 -8.0703,0 -13.75794,-5.84136001 -5.68764,-5.91822 -5.68764,-14.37282 0,-8.4546 5.68764,-14.29596 5.68764,-5.91822 13.75794,-5.91822 9.53064,0 14.52654,7.60914 z m -13.68108,32.97294 q 5.84136,0 9.76122,-3.9198601 3.91986,-3.9967199 3.91986,-9.8380799 0,-5.84136 -3.91986,-9.76122 -3.91986,-3.99672 -9.76122,-3.99672 -5.7645,0 -9.68436,3.99672 -3.91986,3.91986 -3.91986,9.76122 0,5.84136 3.91986,9.8380799 3.91986,3.9198601 9.68436,3.9198601 z"
         id="path53" />
      <path
         style="letter-spacing:0.02em"
         d="m 974.29282,-53.802 h 6.68682 V 0 h -6.68682 v -6.6099601 q -4.9959,7.60914011 -14.52654,7.60914011 -8.0703,0 -13.75794,-5.84136001 -5.68764,-5.91822 -5.68764,-14.37282 0,-8.4546 5.68764,-14.29596 5.68764,-5.91822 13.75794,-5.91822 9.53064,0 14.52654,7.60914 z m -13.68108,48.34494 q 5.84136,0 9.76122,-3.9198601 3.91986,-3.9967199 3.91986,-9.8380799 0,-5.84136 -3.91986,-9.76122 -3.91986,-3.99672 -9.76122,-3.99672 -5.7645,0 -9.68436,3.99672 -3.91986,3.91986 -3.91986,9.76122 0,5.84136 3.91986,9.8380799 3.91986,3.9198601 9.68436,3.9198601 z m 36.73904,-10.68354 q 0.99918,5.14962 4.68842,7.9934399 3.7662,2.8438201 9.2232,2.8438201 7.6092,0 11.0679,-5.61078 l 5.6876,3.2281199 q -5.6108,8.68518011 -16.9092,8.68518011 -9.1463,0 -14.91082,-5.68764001 -5.68764,-5.7645 -5.68764,-14.52654 0,-8.68518 5.61078,-14.44968 5.61078,-5.7645 14.52658,-5.7645 8.4546,0 13.7579,5.99508 5.3802,5.91822 5.3802,14.29596 0,1.46034 -0.2306,2.99754 z m 13.29682,-16.98606 q -5.3802,0 -8.9158,3.0744 -3.53556,2.99754 -4.38102,8.0703 h 25.67122 q -0.8454,-5.45706 -4.3041,-8.30088 -3.4587,-2.84382 -8.0703,-2.84382 z M 1039.0089,0 v -56.1078 h 6.6868 V 0 Z"
         id="path54" />
      <path
         style="letter-spacing:0.02em"
         d="m 1105.6414,0.99918001 q -12.2207,0 -20.2142,-8.07030011 -7.9166,-8.0702999 -7.9166,-19.8298799 0,-11.75958 7.9166,-19.82988 7.9935,-8.0703 20.2142,-8.0703 7.3786,0 13.5274,3.53556 6.2256,3.53556 9.6843,9.53064 l -6.2256,3.61242 q -2.3058,-4.45788 -6.9174,-7.07112 -4.5348,-2.6901 -10.0687,-2.6901 -9.3001,0 -15.2183,5.99508 -5.8413,5.99508 -5.8413,14.9877 0,8.91576 5.8413,14.91084 5.9182,5.99508 15.2183,5.99508 5.5339,0 10.0687,-2.6132401 4.6116,-2.6900999 6.9174,-7.0711199 l 6.2256,3.53556 q -3.3818,5.99508 -9.6075,9.6075 -6.2256,3.53556001 -13.6042,3.53556001 z"
         id="path55" />
      <path
         style="letter-spacing:0.03em"
         d="m 1169.7328,-38.43 h 6.6868 V 0 h -6.6868 v -6.6099601 q -4.9959,7.60914011 -14.5266,7.60914011 -8.0703,0 -13.7579,-5.84136001 -5.6877,-5.91822 -5.6877,-14.37282 0,-8.4546 5.6877,-14.29596 5.6876,-5.91822 13.7579,-5.91822 9.5307,0 14.5266,7.60914 z m -13.6811,32.97294 q 5.8413,0 9.7612,-3.9198601 3.9199,-3.9967199 3.9199,-9.8380799 0,-5.84136 -3.9199,-9.76122 -3.9199,-3.99672 -9.7612,-3.99672 -5.7645,0 -9.6844,3.99672 -3.9198,3.91986 -3.9198,9.76122 0,5.84136 3.9198,9.8380799 3.9199,3.9198601 9.6844,3.9198601 z m 39.506,-26.5167 q 3.305,-7.14798 11.9901,-7.14798 v 6.99426 q -4.919,-0.23058 -8.4546,2.61324 -3.5355,2.84382 -3.5355,9.14634 V 0 h -6.6868 v -38.43 h 6.6868 z m 24.2108,-13.4505 q -1.9215,0 -3.2281,-1.30662 -1.3066,-1.30662 -1.3066,-3.15126 0,-1.84464 1.3066,-3.15126 1.3066,-1.38348 3.2281,-1.38348 1.8447,0 3.1513,1.38348 1.3066,1.30662 1.3066,3.15126 0,1.84464 -1.3066,3.15126 -1.3066,1.30662 -3.1513,1.30662 z M 1216.3867,0 v -38.43 h 6.6868 V 0 Z m 40.4283,-39.42918 q 8.0703,0 13.7579,5.91822 5.6877,5.84136 5.6877,14.29596 0,8.4546 -5.6877,14.37282 -5.6876,5.84136001 -13.7579,5.84136001 -9.5307,0 -14.5266,-7.60914011 V 0 h -6.6868 v -53.802 h 6.6868 v 21.98196 q 4.9959,-7.60914 14.5266,-7.60914 z m -0.8455,33.97212 q 5.7645,0 9.6844,-3.9198601 3.9198,-3.9967199 3.9198,-9.8380799 0,-5.84136 -3.9198,-9.76122 -3.9199,-3.99672 -9.6844,-3.99672 -5.8413,0 -9.7612,3.99672 -3.9199,3.91986 -3.9199,9.76122 0,5.84136 3.9199,9.8380799 3.9199,3.9198601 9.7612,3.9198601 z"
         id="path56" />
      <path
         d="m 1289.7012,-16.1406 q 0.9991,5.14962 4.6884,7.9934399 3.7662,2.8438201 9.2232,2.8438201 7.6092,0 11.0679,-5.61078 l 5.6876,3.2281199 q -5.6108,8.68518011 -16.9092,8.68518011 -9.1463,0 -14.9108,-5.68764001 -5.6877,-5.7645 -5.6877,-14.52654 0,-8.68518 5.6108,-14.44968 5.6108,-5.7645 14.5265,-5.7645 8.4546,0 13.758,5.99508 5.3802,5.91822 5.3802,14.29596 0,1.46034 -0.2306,2.99754 z m 13.2967,-16.98606 q -5.3802,0 -8.9157,3.0744 -3.5356,2.99754 -4.381,8.0703 h 25.6712 q -0.8455,-5.45706 -4.3042,-8.30088 -3.4587,-2.84382 -8.0703,-2.84382 z"
         id="path57" />
    </g>
    <path
       class="cls-2"
       d="M1249.49,548.52c-13.65-13.65-23.46-28.93-29.43-45.82-9.68,7.26-19.65,14.09-30.28,19.91,2.63,6.17,5.68,12.21,9.14,18.12,14.33,24.56,33.79,44.01,58.35,58.35,24.55,14.34,51.32,21.51,80.31,21.51h273.2v-35.7h-273.2c-34.48,0-63.84-12.13-88.09-36.38"
       id="path33" />
    <path
       class="cls-2"
       d="M1337.59,300.26c-28.99,0-55.76,7.17-80.31,21.51-24.56,14.34-44.01,33.79-58.35,58.35-6.25,10.69-11.16,21.81-14.71,33.35,13.04-3.62,26.55-5.16,40.07-5.62,5.99-12.85,14.39-24.69,25.21-35.5,24.25-24.26,53.61-36.38,88.09-36.38h273.2v-35.69h-273.2Z"
       id="path34" />
  </g>
</svg>
