<?xml version="1.0" encoding="UTF-8" standalone="no"?>
<svg
   id="Layer_1"
   data-name="Layer 1"
   viewBox="0 0 1920 1080"
   version="1.1"
   sodipodi:docname="sac-logo-25-aniversario-short.svg"
   inkscape:version="1.3.2 (091e20e, 2023-11-25, custom)"
   xmlns:inkscape="http://www.inkscape.org/namespaces/inkscape"
   xmlns:sodipodi="http://sodipodi.sourceforge.net/DTD/sodipodi-0.dtd"
   xmlns="http://www.w3.org/2000/svg"
   xmlns:svg="http://www.w3.org/2000/svg">
  <sodipodi:namedview
     id="namedview11"
     pagecolor="#ffffff"
     bordercolor="#000000"
     borderopacity="0.25"
     inkscape:showpageshadow="2"
     inkscape:pageopacity="0.0"
     inkscape:pagecheckerboard="0"
     inkscape:deskcolor="#d1d1d1"
     inkscape:zoom="1.0861111"
     inkscape:cx="959.84655"
     inkscape:cy="540"
     inkscape:window-width="1350"
     inkscape:window-height="1237"
     inkscape:window-x="196"
     inkscape:window-y="198"
     inkscape:window-maximized="0"
     inkscape:current-layer="Layer_1" />
  <defs
     id="defs1">
    <style
       id="style1">
      .cls-1 {
        fill: #551248;
      }

      .cls-2, .cls-3, .cls-4 {
        fill: #201b50;
      }

      .cls-3 {
        font-size: 205.84px;
      }

      .cls-3, .cls-4 {
        font-family: Gilroy-Bold, Gilroy-Bold;
        font-weight: 700;
      }

      .cls-4 {
        font-size: 66.59px;
      }

      .cls-5 {
        letter-spacing: .04em;
      }
    </style>
  </defs>
  <path
     d="M 5.5576799,0 V -21.20152 L 54.753439,-71.838159 q 16.4672,-17.290559 16.4672,-28.817601 0,-8.43944 -5.35184,-13.58544 -5.146,-5.146 -13.3796,-5.146 -16.26136,0 -24.08328,16.87888 L 4.5284799,-116.50544 q 6.7927201,-14.82048 19.5548001,-22.6424 12.762079,-7.82192 27.994239,-7.82192 19.5548,0 33.551919,12.3504 13.99712,12.14456 13.99712,32.9344 0,22.436561 -23.671599,46.108161 L 47.754879,-27.37672 H 101.8908 V 0 Z"
     id="text1"
     class="cls-3"
     style="font-weight:700;font-size:205.84px;font-family:Gilroy-Bold, Gilroy-Bold;fill:#201b50"
     transform="translate(1272.2 617.27)"
     aria-label="2" />
  <path
     d="m 57.635199,-91.598798 q 20.78984,0 34.992799,12.556239 14.202962,12.3504 14.202962,34.58112 0,22.230719 -15.026322,34.7869592 -14.820479,12.5562397 -36.433679,12.5562397 -17.4964,0 -30.875999,-7.8219198 Q 11.11536,-12.76208 5.1459999,-27.99424 L 29.435119,-42.197199 q 5.35184,17.290559 25.93584,17.290559 10.90952,0 16.87888,-5.145999 6.1752,-5.35184 6.1752,-14.4088 0,-8.85112 -5.96936,-14.20296 -5.96936,-5.35184 -16.26136,-5.35184 H 12.55624 L 18.31976,-144.088 h 81.71848 v 26.55336 H 44.667279 l -1.85256,25.935842 z"
     id="text2"
     class="cls-3"
     style="font-weight:700;font-size:205.84px;font-family:Gilroy-Bold, Gilroy-Bold;fill:#201b50"
     transform="translate(1374.5 580.42)"
     aria-label="5" />
  <g
     id="g3">
    <path
       class="cls-1"
       d="M1550.58,482.67c-9.39-1.09-17.9-8.62-18.71-18.71-.38-4.72-2.43-19.11-4.01-29.82-.3-2.04-3.26-2.02-3.53.02-1.42,10.73-3.38,25.13-4.23,29.79-2.07,11.49-8.91,17.34-18.7,18.69-4.68.64-19.04,2.65-29.74,4.14-2.05.28-2.05,3.23,0,3.52,10.72,1.5,25.07,3.51,29.75,4.13,12.45,1.65,17.47,9.6,18.69,18.69.64,4.73,2.67,19.31,4.17,30.06.29,2.04,3.23,2.05,3.53,0,1.55-10.74,3.62-25.32,4.1-30.07,1.07-10.48,8.74-17.6,18.69-18.71,4.74-.52,19.33-2.57,30.07-4.11,2.04-.29,2.04-3.23,0-3.52-10.75-1.53-25.33-3.58-30.07-4.13"
       id="path2" />
    <path
       class="cls-1"
       d="M1579.96,568.5c-8.63-1-16.45-7.92-17.2-17.2-.35-4.34-2.23-17.57-3.68-27.41-.27-1.88-2.99-1.86-3.24.02-1.31,9.86-3.11,23.1-3.89,27.39-1.9,10.56-8.19,15.94-17.19,17.18-4.3.59-17.5,2.43-27.34,3.81-1.88.26-1.88,2.97,0,3.23,9.85,1.38,23.04,3.23,27.35,3.79,11.44,1.51,16.06,8.82,17.18,17.18.59,4.35,2.45,17.75,3.84,27.63.26,1.88,2.97,1.88,3.24,0,1.43-9.87,3.33-23.27,3.77-27.64.98-9.64,8.03-16.18,17.18-17.2,4.36-.48,17.77-2.37,27.64-3.78,1.88-.26,1.88-2.97,0-3.23-9.88-1.4-23.29-3.29-27.64-3.79"
       id="path3" />
  </g>
  <g
     id="text4"
     class="cls-4"
     style="font-weight:700;font-size:66.59px;font-family:Gilroy-Bold, Gilroy-Bold;fill:#201b50"
     transform="translate(1384.98 641.9)"
     aria-label="años">
    <path
       style="letter-spacing:0.04em"
       d="m 29.233008,-33.294998 h 8.59011 V 0 h -8.59011 v -3.9288098 q -3.862219,4.86106975 -10.854169,4.86106975 -6.659,0 -11.4534794,-5.06083975 -4.7278897,-5.1274297 -4.7278897,-12.5189192 0,-7.39149 4.7278897,-12.452329 4.7944794,-5.12743 11.4534794,-5.12743 6.99195,0 10.854169,4.86107 z M 13.384589,-9.8553195 q 2.59701,2.5970099 6.59241,2.5970099 3.9954,0 6.59241,-2.5970099 2.663599,-2.6635995 2.663599,-6.7921795 0,-4.12858 -2.663599,-6.72559 -2.59701,-2.6636 -6.59241,-2.6636 -3.9954,0 -6.59241,2.6636 -2.59701,2.59701 -2.59701,6.72559 0,4.12858 2.59701,6.7921795 z M 63.327053,-39.421278 q -1.93111,-1.3318 -2.73019,-1.06544 -0.79908,0.26636 -0.79908,2.6636 h -6.92536 q 0,-3.06314 0.6659,-5.19402 0.73249,-2.19747 1.93111,-3.262909 1.19862,-1.06544 2.73019,-1.3318 1.59816,-0.33295 3.3295,0.13318 1.73134,0.46613 3.46268,1.59816 1.931109,1.331799 2.663599,1.065439 0.79908,-0.26636 0.79908,-2.663599 h 6.99195 q 0,3.795629 -1.13203,6.259459 -1.06544,2.39724 -2.86337,3.19632 -1.73134,0.73249 -3.86222,0.39954 -2.06429,-0.39954 -4.261759,-1.79793 z m 3.462679,5.19402 q 5.46038,0 8.98965,3.66245 3.59586,3.662449 3.59586,10.121679 V 0 h -8.59011 v -19.377689 q 0,-3.3295 -1.79793,-5.06084 -1.79793,-1.79793 -4.794479,-1.79793 -3.3295,0 -5.3272,2.06429 -1.9977,2.06429 -1.9977,6.19287 V 0 h -8.59011 v -33.294998 h 8.59011 v 3.72904 q 3.12973,-4.6613 9.921909,-4.6613 z m 50.941318,30.0986782 q -5.12743,5.06083975 -12.51892,5.06083975 -7.391485,0 -12.518914,-5.06083975 -5.06084,-5.1274297 -5.06084,-12.5189192 0,-7.39149 5.06084,-12.452329 5.127429,-5.12743 12.518914,-5.12743 7.39149,0 12.51892,5.12743 5.12743,5.060839 5.12743,12.452329 0,7.3914895 -5.12743,12.5189192 z M 98.752905,-10.055089 q 2.597015,2.5970094 6.459225,2.5970094 3.86222,0 6.45923,-2.5970094 2.59701,-2.59701 2.59701,-6.59241 0,-3.9954 -2.59701,-6.59241 -2.59701,-2.59701 -6.45923,-2.59701 -3.86221,0 -6.459225,2.59701 -2.53042,2.59701 -2.53042,6.59241 0,3.9954 2.53042,6.59241 z"
       id="path12" />
    <path
       d="m 138.91302,-23.839219 q 0,1.3318 1.73134,2.19747 1.79793,0.79908 4.32835,1.46498 2.53042,0.59931 5.06084,1.59816 2.53042,0.93226 4.26176,3.19632 1.79793,2.26406 1.79793,5.6601495 0,5.1274298 -3.86222,7.9242096 -3.79563,2.73018985 -9.52237,2.73018985 -10.25486,0 -13.9839,-7.92420955 l 7.45808,-4.1951694 q 1.46498,4.3283494 6.52582,4.3283494 4.59471,0 4.59471,-2.8633699 0,-1.3317995 -1.79793,-2.1308795 -1.73134,-0.86567 -4.26176,-1.53157 -2.53042,-0.6659 -5.06084,-1.66475 -2.53042,-0.99885 -4.32835,-3.12973 -1.73134,-2.19747 -1.73134,-5.46038 0,-4.927659 3.59586,-7.724439 3.66245,-2.86337 9.05624,-2.86337 4.06199,0 7.39149,1.86452 3.3295,1.79793 5.26061,5.194019 l -7.3249,3.9954 q -1.59816,-3.39609 -5.3272,-3.39609 -1.66475,0 -2.79678,0.73249 -1.06544,0.73249 -1.06544,1.9977 z"
       id="path13" />
  </g>
  <g
     id="g11">
    <path
       class="cls-1"
       d="M380.24,378.88h344.13v35.69h-344.13c-14.95,0-27.61,5.19-37.98,15.56-10.38,10.38-15.56,22.96-15.56,37.76s5.18,27.38,15.56,37.75c10.37,10.37,23.03,15.56,37.98,15.56h255.35c24.4,0,45.31,8.69,62.69,26.09,17.39,17.39,26.09,38.29,26.09,62.69,0,16.17-3.97,31.12-11.9,44.85-7.93,13.73-18.76,24.56-32.49,32.49-13.73,7.93-28.53,11.9-44.39,11.9h-344.59v-35.69h344.59c14.64,0,27.15-5.19,37.52-15.56,10.37-10.37,15.56-22.95,15.56-37.76s-5.19-27.38-15.56-37.75c-10.37-10.37-22.88-15.56-37.52-15.56h-255.35c-24.71,0-45.76-8.69-63.15-26.08-17.39-17.39-26.08-38.37-26.08-62.92s8.69-45.54,26.08-62.92c17.39-17.39,38.44-26.09,63.15-26.09"
       id="path4" />
    <path
       class="cls-1"
       d="M1072.17,378.88h70.93v109.41h-35.69v-73.71h-35.24c-16.78,0-31.43,5.65-43.93,16.93l-267.71,267.71h-50.79l294.25-294.25c19.22-17.39,41.95-26.09,68.19-26.09"
       id="path5" />
    <path
       class="cls-1"
       d="M1060.22,439.54c10.16-2.72,20.61,3.31,23.33,13.47,2.73,10.16-3.31,20.61-13.47,23.33-10.16,2.72-20.61-3.31-23.33-13.47-2.73-10.16,3.31-20.61,13.47-23.33"
       id="path6" />
    <path
       class="cls-1"
       d="M808.84,482.29c-9.04-1.05-17.23-8.3-18.02-18.02-.37-4.54-2.34-18.4-3.85-28.71-.29-1.97-3.13-1.95-3.39.02-1.38,10.33-3.26,24.2-4.07,28.69-2,11.07-8.58,16.7-18.01,18.01-4.51.62-18.34,2.55-28.65,3.99-1.97.27-1.97,3.11,0,3.39,10.31,1.44,24.14,3.38,28.65,3.97,11.98,1.59,16.82,9.24,17.99,18.01.61,4.55,2.57,18.59,4.02,28.94.27,1.97,3.11,1.97,3.39,0,1.49-10.34,3.49-24.38,3.95-28.95,1.03-10.1,8.42-16.95,18-18.02,4.56-.5,18.61-2.48,28.95-3.95,1.96-.28,1.96-3.11,0-3.39-10.34-1.47-24.38-3.45-28.95-3.97"
       id="path7" />
    <path
       class="cls-1"
       d="M888.03,405.53c-5.19-.6-9.89-4.76-10.34-10.34-.21-2.61-1.34-10.56-2.21-16.47-.16-1.13-1.8-1.12-1.95.01-.79,5.93-1.87,13.88-2.34,16.46-1.14,6.35-4.92,9.58-10.33,10.33-2.58.35-10.52,1.46-16.43,2.29-1.13.15-1.13,1.78,0,1.94,5.92.83,13.85,1.94,16.44,2.28,6.88.91,9.65,5.3,10.32,10.33.35,2.61,1.48,10.67,2.31,16.61.16,1.13,1.78,1.13,1.95,0,.86-5.93,2-13.99,2.27-16.61.59-5.79,4.83-9.72,10.32-10.34,2.62-.29,10.68-1.42,16.61-2.27,1.13-.16,1.13-1.78,0-1.94-5.94-.84-13.99-1.98-16.61-2.28"
       id="path8" />
    <path
       class="cls-2"
       d="M1072.16,661.4c-24.84,9.25-49.41,16.87-72.48,22.56,24.21,15.86,55.25,20.38,84.38,9.48,29.18-10.85,49.69-34.64,57.53-62.45-21.15,10.8-44.67,21.15-69.43,30.41M1262.57,509.67c-10.52-18.93-69.38-10.03-146.56,17.02-1.09-1.14-2.23-2.19-3.37-3.19-25.12-22.66-61.73-30.82-95.6-18.19-33.87,12.67-56.16,42.81-60.31,76.41-.19,1.55-.37,3.15-.5,4.69-78.54,33-122.03,71.06-115.19,89.38,9.71,25.98,130.96,6.08,228.34-30.3,97.42-36.38,206.66-111.57,193.19-135.81M921.77,634.5c-3.79-10.12,9.71-23.06,34.19-39.24,0,1.5.04.49.09,2,.41,9.62,2.32,19.33,5.88,28.86,1.87,5.06,4.19,9.89,6.84,14.4.68,1.23,1.41,2.42,2.19,3.65-26.94,3.01-45.58.04-49.19-9.67M1142.82,579.93c-.23-1.37-.46-2.78-.73-4.15-.96-5.15-2.37-10.3-4.28-15.36-3.56-9.52-8.48-18.09-14.5-25.62-.95-1.18-1.4-1.86-2.45-3,29.13-3.83,49.04-1.52,52.83,8.65,3.6,9.67-8.53,24.16-30.86,39.48"
       id="path9" />
    <path
       class="cls-1"
       d="M1249.49,627.14c-13.65-13.65-23.46-28.93-29.43-45.82-9.68,7.26-19.65,14.09-30.28,19.91,2.63,6.17,5.68,12.21,9.14,18.12,14.33,24.56,33.79,44.01,58.35,58.35,24.55,14.34,51.32,21.51,80.31,21.51h273.2v-35.7h-273.2c-34.48,0-63.84-12.13-88.09-36.38"
       id="path10" />
    <path
       class="cls-1"
       d="M1337.59,378.88c-28.99,0-55.76,7.17-80.31,21.51-24.56,14.34-44.01,33.79-58.35,58.35-6.25,10.69-11.16,21.81-14.71,33.35,13.04-3.62,26.55-5.16,40.07-5.62,5.99-12.85,14.39-24.69,25.21-35.5,24.25-24.26,53.61-36.38,88.09-36.38h273.2v-35.69h-273.2Z"
       id="path11" />
  </g>
</svg>
